<svg xmlns="http://www.w3.org/2000/svg" viewBox="0 0 512 512" width="100%" height="100%">
  <defs>
    <linearGradient id="ant-grad" x1="0%" y1="0%" x2="100%" y2="100%">
      <stop offset="0%" stop-color="#0070AD" />
      <stop offset="100%" stop-color="#17ABDA" />
    </linearGradient>
  </defs>
  <!-- Background rounded rectangle for high visibility favicon -->
  <rect width="512" height="512" rx="110" fill="#002C52" />
  
  <!-- Ant Graphic -->
  <g fill="url(#ant-grad)" stroke="url(#ant-grad)" stroke-width="12" stroke-linecap="round" stroke-linejoin="round">
    <!-- Abdomen -->
    <ellipse cx="256" cy="350" rx="55" ry="80" />
    
    <!-- Thorax -->
    <ellipse cx="256" cy="225" rx="36" ry="45" />
    
    <!-- Head -->
    <circle cx="256" cy="130" r="28" />
    
    <!-- Antennae -->
    <path d="M240 110 Q200 80 170 90" fill="none" stroke-width="16" />
    <path d="M272 110 Q312 80 342 90" fill="none" stroke-width="16" />
    
    <!-- Legs Left -->
    <!-- Front Leg -->
    <path d="M220 205 Q140 175 110 115" fill="none" stroke-width="16" />
    <!-- Middle Leg -->
    <path d="M220 230 Q130 245 100 295" fill="none" stroke-width="16" />
    <!-- Back Leg -->
    <path d="M220 255 Q120 295 120 395" fill="none" stroke-width="16" />
    
    <!-- Legs Right -->
    <!-- Front Leg -->
    <path d="M292 205 Q372 175 402 115" fill="none" stroke-width="16" />
    <!-- Middle Leg -->
    <path d="M292 230 Q382 245 412 295" fill="none" stroke-width="16" />
    <!-- Back Leg -->
    <path d="M292 255 Q392 295 392 395" fill="none" stroke-width="16" />
  </g>
</svg>